<svg version="1.1" xmlns="http://www.w3.org/2000/svg" viewBox="0 0 659.0000000000002 618.3197831978323" width="659.0000000000002" height="618.3197831978323">
  <!-- svg-source:excalidraw -->
  
  <defs>
    <style>
      @font-face {
        font-family: "Virgil";
        src: url("https://excalidraw.com/Virgil.woff2");
      }
      @font-face {
        font-family: "Cascadia";
        src: url("https://excalidraw.com/Cascadia.woff2");
      }
    </style>
  </defs>
  <rect x="0" y="0" width="659.0000000000002" height="618.3197831978323" fill="#ffffff"></rect><g stroke-linecap="round" transform="translate(10.000000000000455 170.3929539295391) rotate(0 299.1598915989158 137.8658536585367)"><path d="M598.32 137.87 C598.32 140.75, 598.12 143.64, 597.73 146.52 C597.34 149.4, 596.75 152.28, 595.96 155.15 C595.18 158.01, 594.19 160.86, 593.02 163.7 C591.85 166.53, 590.48 169.36, 588.92 172.15 C587.36 174.95, 585.61 177.72, 583.68 180.47 C581.74 183.21, 579.62 185.93, 577.31 188.62 C575.01 191.3, 572.51 193.96, 569.85 196.57 C567.18 199.18, 564.33 201.75, 561.32 204.28 C558.3 206.81, 555.1 209.3, 551.75 211.74 C548.39 214.17, 544.87 216.57, 541.19 218.9 C537.5 221.24, 533.66 223.52, 529.67 225.74 C525.68 227.97, 521.52 230.14, 517.24 232.24 C512.95 234.35, 508.51 236.39, 503.95 238.37 C499.38 240.34, 494.68 242.25, 489.85 244.09 C485.03 245.93, 480.07 247.71, 475 249.4 C469.94 251.1, 464.74 252.72, 459.46 254.27 C454.17 255.82, 448.77 257.29, 443.28 258.68 C437.79 260.07, 432.2 261.38, 426.54 262.61 C420.87 263.84, 415.11 264.99, 409.29 266.05 C403.47 267.11, 397.56 268.09, 391.61 268.98 C385.65 269.88, 379.62 270.68, 373.56 271.4 C367.49 272.12, 361.37 272.75, 355.22 273.29 C349.07 273.83, 342.87 274.28, 336.65 274.64 C330.44 275.01, 324.19 275.28, 317.94 275.46 C311.7 275.64, 305.42 275.73, 299.16 275.73 C292.9 275.73, 286.62 275.64, 280.38 275.46 C274.13 275.28, 267.88 275.01, 261.67 274.64 C255.45 274.28, 249.25 273.83, 243.1 273.29 C236.95 272.75, 230.83 272.12, 224.76 271.4 C218.7 270.68, 212.67 269.88, 206.71 268.98 C200.76 268.09, 194.85 267.11, 189.03 266.05 C183.21 264.99, 177.45 263.84, 171.78 262.61 C166.12 261.38, 160.53 260.07, 155.04 258.68 C149.55 257.29, 144.15 255.82, 138.86 254.27 C133.58 252.72, 128.38 251.1, 123.32 249.4 C118.25 247.71, 113.29 245.93, 108.47 244.09 C103.64 242.25, 98.94 240.34, 94.37 238.37 C89.81 236.39, 85.37 234.35, 81.08 232.24 C76.8 230.14, 72.64 227.97, 68.65 225.74 C64.66 223.52, 60.81 221.24, 57.13 218.9 C53.45 216.57, 49.93 214.17, 46.57 211.74 C43.22 209.3, 40.02 206.81, 37 204.28 C33.99 201.75, 31.14 199.18, 28.47 196.57 C25.81 193.96, 23.31 191.3, 21.01 188.62 C18.7 185.93, 16.58 183.21, 14.64 180.47 C12.71 177.72, 10.96 174.95, 9.4 172.15 C7.84 169.36, 6.47 166.53, 5.3 163.7 C4.13 160.86, 3.14 158.01, 2.36 155.15 C1.57 152.28, 0.98 149.4, 0.59 146.52 C0.2 143.64, 0 140.75, 0 137.87 C0 134.98, 0.2 132.09, 0.59 129.21 C0.98 126.33, 1.57 123.45, 2.36 120.59 C3.14 117.72, 4.13 114.87, 5.3 112.03 C6.47 109.2, 7.84 106.37, 9.4 103.58 C10.96 100.79, 12.71 98.01, 14.64 95.26 C16.58 92.52, 18.7 89.8, 21.01 87.11 C23.31 84.43, 25.81 81.78, 28.47 79.17 C31.14 76.55, 33.99 73.98, 37 71.45 C40.02 68.92, 43.22 66.43, 46.57 63.99 C49.93 61.56, 53.45 59.16, 57.13 56.83 C60.81 54.5, 64.66 52.21, 68.65 49.99 C72.64 47.76, 76.8 45.59, 81.08 43.49 C85.37 41.39, 89.81 39.34, 94.37 37.37 C98.94 35.39, 103.64 33.48, 108.47 31.64 C113.29 29.8, 118.25 28.03, 123.32 26.33 C128.38 24.63, 133.58 23.01, 138.86 21.46 C144.15 19.92, 149.55 18.44, 155.04 17.05 C160.53 15.66, 166.12 14.35, 171.78 13.12 C177.45 11.89, 183.21 10.74, 189.03 9.68 C194.85 8.62, 200.76 7.64, 206.71 6.75 C212.67 5.86, 218.7 5.05, 224.76 4.33 C230.83 3.61, 236.95 2.98, 243.1 2.44 C249.25 1.9, 255.45 1.45, 261.67 1.09 C267.88 0.73, 274.13 0.45, 280.38 0.27 C286.62 0.09, 292.9 0, 299.16 0 C305.42 0, 311.7 0.09, 317.94 0.27 C324.19 0.45, 330.44 0.73, 336.65 1.09 C342.87 1.45, 349.07 1.9, 355.22 2.44 C361.37 2.98, 367.49 3.61, 373.56 4.33 C379.62 5.05, 385.65 5.86, 391.61 6.75 C397.56 7.64, 403.47 8.62, 409.29 9.68 C415.11 10.74, 420.87 11.89, 426.54 13.12 C432.2 14.35, 437.79 15.66, 443.28 17.05 C448.77 18.44, 454.17 19.92, 459.46 21.46 C464.74 23.01, 469.94 24.63, 475 26.33 C480.07 28.03, 485.03 29.8, 489.85 31.64 C494.68 33.48, 499.38 35.39, 503.95 37.37 C508.51 39.34, 512.95 41.39, 517.24 43.49 C521.52 45.59, 525.68 47.76, 529.67 49.99 C533.66 52.21, 537.5 54.5, 541.19 56.83 C544.87 59.16, 548.39 61.56, 551.75 63.99 C555.1 66.43, 558.3 68.92, 561.32 71.45 C564.33 73.98, 567.18 76.55, 569.85 79.17 C572.51 81.78, 575.01 84.43, 577.31 87.11 C579.62 89.8, 581.74 92.52, 583.68 95.26 C585.61 98.01, 587.36 100.79, 588.92 103.58 C590.48 106.37, 591.85 109.2, 593.02 112.03 C594.19 114.87, 595.18 117.72, 595.96 120.59 C596.75 123.45, 597.34 126.33, 597.73 129.21 C598.12 132.09, 598.22 136.42, 598.32 137.87 C598.42 139.31, 598.42 136.42, 598.32 137.87" stroke="#343a40" stroke-width="1" fill="none"></path></g><g stroke-linecap="round"><g transform="translate(307.35772357723613 307.3577235772359) rotate(0 150.48102981029797 0)"><path d="M0 0 C50.16 0, 250.8 0, 300.96 0 M0 0 C50.16 0, 250.8 0, 300.96 0" stroke="#343a40" stroke-width="1" fill="none"></path></g><g transform="translate(307.35772357723613 307.3577235772359) rotate(0 150.48102981029797 0)"><path d="M272.77 10.26 C280.19 7.56, 287.62 4.86, 300.96 0 M272.77 10.26 C283.69 6.29, 294.61 2.31, 300.96 0" stroke="#343a40" stroke-width="1" fill="none"></path></g><g transform="translate(307.35772357723613 307.3577235772359) rotate(0 150.48102981029797 0)"><path d="M272.77 -10.26 C280.19 -7.56, 287.62 -4.86, 300.96 0 M272.77 -10.26 C283.69 -6.29, 294.61 -2.31, 300.96 0" stroke="#343a40" stroke-width="1" fill="none"></path></g></g><g stroke-linecap="round"><g transform="translate(309.1598915989164 307.3577235772359) rotate(0 -0.7129873309995673 -69.53408945573597)"><path d="M0 0 C-0.24 -23.18, -1.19 -115.89, -1.43 -139.07 M0 0 C-0.24 -23.18, -1.19 -115.89, -1.43 -139.07" stroke="#343a40" stroke-width="1" fill="none"></path></g><g transform="translate(309.1598915989164 307.3577235772359) rotate(0 -0.7129873309995673 -69.53408945573597)"><path d="M9.12 -110.98 C6.36 -118.33, 3.61 -125.67, -1.43 -139.07 M9.12 -110.98 C5.47 -120.71, 1.81 -130.45, -1.43 -139.07" stroke="#343a40" stroke-width="1" fill="none"></path></g><g transform="translate(309.1598915989164 307.3577235772359) rotate(0 -0.7129873309995673 -69.53408945573597)"><path d="M-11.4 -110.77 C-8.79 -118.17, -6.18 -125.57, -1.43 -139.07 M-11.4 -110.77 C-7.94 -120.58, -4.49 -130.38, -1.43 -139.07" stroke="#343a40" stroke-width="1" fill="none"></path></g></g><g stroke-linecap="round" transform="translate(10 10) rotate(0 299.15989159891603 299.15989159891615)"><path d="M598.32 299.16 C598.32 304.75, 598.16 310.35, 597.85 315.93 C597.54 321.52, 597.06 327.1, 596.44 332.66 C595.81 338.21, 595.03 343.76, 594.09 349.27 C593.16 354.78, 592.06 360.28, 590.82 365.73 C589.58 371.18, 588.18 376.61, 586.63 381.98 C585.08 387.35, 583.38 392.69, 581.53 397.97 C579.69 403.24, 577.69 408.48, 575.55 413.64 C573.41 418.81, 571.12 423.92, 568.69 428.96 C566.27 434, 563.7 438.98, 560.99 443.87 C558.29 448.76, 555.44 453.59, 552.47 458.32 C549.49 463.06, 546.38 467.72, 543.14 472.28 C539.91 476.84, 536.54 481.31, 533.05 485.68 C529.57 490.05, 525.95 494.33, 522.23 498.5 C518.5 502.67, 514.65 506.74, 510.7 510.7 C506.74 514.65, 502.67 518.5, 498.5 522.23 C494.33 525.95, 490.05 529.57, 485.68 533.05 C481.31 536.54, 476.84 539.91, 472.28 543.14 C467.72 546.38, 463.06 549.49, 458.32 552.47 C453.59 555.44, 448.76 558.29, 443.87 560.99 C438.98 563.7, 434 566.27, 428.96 568.69 C423.92 571.12, 418.81 573.41, 413.64 575.55 C408.48 577.69, 403.24 579.69, 397.97 581.53 C392.69 583.38, 387.35 585.08, 381.98 586.63 C376.61 588.18, 371.18 589.58, 365.73 590.82 C360.28 592.06, 354.78 593.16, 349.27 594.09 C343.76 595.03, 338.21 595.81, 332.66 596.44 C327.1 597.06, 321.52 597.54, 315.93 597.85 C310.35 598.16, 304.75 598.32, 299.16 598.32 C293.57 598.32, 287.97 598.16, 282.39 597.85 C276.8 597.54, 271.22 597.06, 265.66 596.44 C260.11 595.81, 254.56 595.03, 249.05 594.09 C243.54 593.16, 238.04 592.06, 232.59 590.82 C227.14 589.58, 221.71 588.18, 216.34 586.63 C210.97 585.08, 205.63 583.38, 200.35 581.53 C195.08 579.69, 189.84 577.69, 184.68 575.55 C179.51 573.41, 174.4 571.12, 169.36 568.69 C164.32 566.27, 159.34 563.7, 154.45 560.99 C149.56 558.29, 144.73 555.44, 140 552.47 C135.26 549.49, 130.6 546.38, 126.04 543.14 C121.48 539.91, 117.01 536.54, 112.64 533.05 C108.27 529.57, 103.98 525.95, 99.82 522.23 C95.65 518.5, 91.58 514.65, 87.62 510.7 C83.67 506.74, 79.82 502.67, 76.09 498.5 C72.37 494.33, 68.75 490.05, 65.27 485.68 C61.78 481.31, 58.41 476.84, 55.18 472.28 C51.94 467.72, 48.83 463.06, 45.85 458.32 C42.88 453.59, 40.03 448.76, 37.33 443.87 C34.62 438.98, 32.05 434, 29.63 428.96 C27.2 423.92, 24.91 418.81, 22.77 413.64 C20.63 408.48, 18.63 403.24, 16.79 397.97 C14.94 392.69, 13.24 387.35, 11.69 381.98 C10.14 376.61, 8.74 371.18, 7.5 365.73 C6.26 360.28, 5.16 354.78, 4.23 349.27 C3.29 343.76, 2.51 338.21, 1.88 332.66 C1.26 327.1, 0.78 321.52, 0.47 315.93 C0.16 310.35, 0 304.75, 0 299.16 C0 293.57, 0.16 287.97, 0.47 282.39 C0.78 276.8, 1.26 271.22, 1.88 265.66 C2.51 260.11, 3.29 254.56, 4.23 249.05 C5.16 243.54, 6.26 238.04, 7.5 232.59 C8.74 227.14, 10.14 221.71, 11.69 216.34 C13.24 210.97, 14.94 205.63, 16.79 200.35 C18.63 195.08, 20.63 189.84, 22.77 184.68 C24.91 179.51, 27.2 174.4, 29.63 169.36 C32.05 164.32, 34.62 159.34, 37.33 154.45 C40.03 149.56, 42.88 144.73, 45.85 140 C48.83 135.26, 51.94 130.6, 55.18 126.04 C58.41 121.48, 61.78 117.01, 65.27 112.64 C68.75 108.27, 72.37 103.98, 76.09 99.82 C79.82 95.65, 83.67 91.58, 87.62 87.62 C91.58 83.67, 95.65 79.82, 99.82 76.09 C103.98 72.37, 108.27 68.75, 112.64 65.27 C117.01 61.78, 121.48 58.41, 126.04 55.18 C130.6 51.94, 135.26 48.83, 140 45.85 C144.73 42.88, 149.56 40.03, 154.45 37.33 C159.34 34.62, 164.32 32.05, 169.36 29.63 C174.4 27.2, 179.51 24.91, 184.68 22.77 C189.84 20.63, 195.08 18.63, 200.35 16.79 C205.63 14.94, 210.97 13.24, 216.34 11.69 C221.71 10.14, 227.14 8.74, 232.59 7.5 C238.04 6.26, 243.54 5.16, 249.05 4.23 C254.56 3.29, 260.11 2.51, 265.66 1.88 C271.22 1.26, 276.8 0.78, 282.39 0.47 C287.97 0.16, 293.57 0, 299.16 0 C304.75 0, 310.35 0.16, 315.93 0.47 C321.52 0.78, 327.1 1.26, 332.66 1.88 C338.21 2.51, 343.76 3.29, 349.27 4.23 C354.78 5.16, 360.28 6.26, 365.73 7.5 C371.18 8.74, 376.61 10.14, 381.98 11.69 C387.35 13.24, 392.69 14.94, 397.97 16.79 C403.24 18.63, 408.48 20.63, 413.64 22.77 C418.81 24.91, 423.92 27.2, 428.96 29.63 C434 32.05, 438.98 34.62, 443.87 37.33 C448.76 40.03, 453.59 42.88, 458.32 45.85 C463.06 48.83, 467.72 51.94, 472.28 55.18 C476.84 58.41, 481.31 61.78, 485.68 65.27 C490.05 68.75, 494.33 72.37, 498.5 76.09 C502.67 79.82, 506.74 83.67, 510.7 87.62 C514.65 91.58, 518.5 95.65, 522.23 99.82 C525.95 103.98, 529.57 108.27, 533.05 112.64 C536.54 117.01, 539.91 121.48, 543.14 126.04 C546.38 130.6, 549.49 135.26, 552.47 140 C555.44 144.73, 558.29 149.56, 560.99 154.45 C563.7 159.34, 566.27 164.32, 568.69 169.36 C571.12 174.4, 573.41 179.51, 575.55 184.68 C577.69 189.84, 579.69 195.08, 581.53 200.35 C583.38 205.63, 585.08 210.97, 586.63 216.34 C588.18 221.71, 589.58 227.14, 590.82 232.59 C592.06 238.04, 593.16 243.54, 594.09 249.05 C595.03 254.56, 595.81 260.11, 596.44 265.66 C597.06 271.22, 597.54 276.8, 597.85 282.39 C598.16 287.97, 598.24 296.36, 598.32 299.16 C598.4 301.96, 598.4 296.36, 598.32 299.16" stroke="#343a40" stroke-width="1" fill="none"></path></g><g stroke-linecap="round"><g transform="translate(309.1598915989164 307.3577235772359) rotate(0 67.58130081300817 -130.65718157181573)"><path d="M0 0 C22.53 -43.55, 112.64 -217.76, 135.16 -261.31 M0 0 C22.53 -43.55, 112.64 -217.76, 135.16 -261.31" stroke="#343a40" stroke-width="1" fill="none"></path></g></g><g transform="translate(351.0000000000002 276) rotate(0 7.5 12.5)"><text x="0" y="18" font-family="Virgil, Segoe UI Emoji" font-size="20px" fill="#343a40" text-anchor="start" style="white-space: pre;" direction="ltr">φ</text></g><g stroke-linecap="round"><g transform="translate(445.0000000000002 44) rotate(0 0 132)"><path d="M0 0 C0 44, 0 220, 0 264 M0 0 C0 44, 0 220, 0 264" stroke="#343a40" stroke-width="1" fill="none"></path></g></g><g stroke-linecap="round"><g transform="translate(344.0000000000002 307) rotate(0 -8 -17.5)"><path d="M0 0 C-0.33 -3.33, 0.67 -14.17, -2 -20 C-4.67 -25.83, -13.67 -32.5, -16 -35 M0 0 C-0.33 -3.33, 0.67 -14.17, -2 -20 C-4.67 -25.83, -13.67 -32.5, -16 -35" stroke="#343a40" stroke-width="1" fill="none"></path></g><g transform="translate(344.0000000000002 307) rotate(0 -8 -17.5)"><path d="M-6.51 -31.09 C-8.55 -31.93, -10.58 -32.77, -16 -35 M-6.51 -31.09 C-10.25 -32.63, -13.99 -34.17, -16 -35" stroke="#343a40" stroke-width="1" fill="none"></path></g><g transform="translate(344.0000000000002 307) rotate(0 -8 -17.5)"><path d="M-11.25 -25.91 C-12.26 -27.86, -13.28 -29.8, -16 -35 M-11.25 -25.91 C-13.12 -29.49, -14.99 -33.08, -16 -35" stroke="#343a40" stroke-width="1" fill="none"></path></g></g><g stroke-linecap="round"><g transform="translate(490.0000000000002 307) rotate(0 -21.5 -59.5)"><path d="M0 0 C-7.17 -19.83, -35.83 -99.17, -43 -119 M0 0 C-7.17 -19.83, -35.83 -99.17, -43 -119" stroke="#343a40" stroke-width="1" fill="none"></path></g><g transform="translate(490.0000000000002 307) rotate(0 -21.5 -59.5)"><path d="M-23.77 -95.97 C-30.84 -104.44, -37.91 -112.91, -43 -119 M-23.77 -95.97 C-28.8 -102, -33.83 -108.02, -43 -119" stroke="#343a40" stroke-width="1" fill="none"></path></g><g transform="translate(490.0000000000002 307) rotate(0 -21.5 -59.5)"><path d="M-43.07 -89 C-43.04 -100.03, -43.02 -111.07, -43 -119 M-43.07 -89 C-43.05 -96.85, -43.03 -104.69, -43 -119" stroke="#343a40" stroke-width="1" fill="none"></path></g></g><g transform="translate(477.0000000000002 232) rotate(0 5.5 12.5)"><text x="0" y="18" font-family="Virgil, Segoe UI Emoji" font-size="20px" fill="#343a40" text-anchor="start" style="white-space: pre;" direction="ltr">r</text></g><g transform="translate(634.0000000000002 301) rotate(0 7.5 12.5)"><text x="0" y="18" font-family="Virgil, Segoe UI Emoji" font-size="20px" fill="#343a40" text-anchor="start" style="white-space: pre;" direction="ltr">a</text></g><g transform="translate(291.00000000000034 130) rotate(0 6 12.5)"><text x="0" y="18" font-family="Virgil, Segoe UI Emoji" font-size="20px" fill="#343a40" text-anchor="start" style="white-space: pre;" direction="ltr">b</text></g><g stroke-linecap="round"><g transform="translate(311.00000000000034 307) rotate(0 64.99999999999994 -59)"><path d="M0 0 C21.67 -19.67, 108.33 -98.33, 130 -118 M0 0 C21.67 -19.67, 108.33 -98.33, 130 -118" stroke="#343a40" stroke-width="1" fill="none"></path></g><g transform="translate(311.00000000000034 307) rotate(0 64.99999999999994 -59)"><path d="M116.02 -91.46 C120.51 -99.97, 124.99 -108.49, 130 -118 M116.02 -91.46 C121.47 -101.79, 126.91 -112.13, 130 -118" stroke="#343a40" stroke-width="1" fill="none"></path></g><g transform="translate(311.00000000000034 307) rotate(0 64.99999999999994 -59)"><path d="M102.23 -106.65 C111.14 -110.29, 120.05 -113.93, 130 -118 M102.23 -106.65 C113.05 -111.07, 123.86 -115.49, 130 -118" stroke="#343a40" stroke-width="1" fill="none"></path></g></g><g transform="translate(394.0000000000002 233) rotate(0 6.5 12.5)"><text x="0" y="18" font-family="Virgil, Segoe UI Emoji" font-size="20px" fill="#343a40" text-anchor="start" style="white-space: pre;" direction="ltr">x</text></g><g transform="translate(503.60919577803793 273.66088261124105) rotate(0 6.5 12.5)"><text x="0" y="18" font-family="Virgil, Segoe UI Emoji" font-size="20px" fill="#343a40" text-anchor="start" style="white-space: pre;" direction="ltr">θ</text></g><g stroke-linecap="round"><g transform="translate(507.8349048875964 306.2135946211488) rotate(0 -11.349479338053243 -8.252418825978566)"><path d="M0 0 C-1.18 -2.03, -3.3 -9.4, -7.08 -12.15 C-10.87 -14.9, -20.1 -15.78, -22.7 -16.5 M0 0 C-1.18 -2.03, -3.3 -9.4, -7.08 -12.15 C-10.87 -14.9, -20.1 -15.78, -22.7 -16.5" stroke="#343a40" stroke-width="1" fill="none"></path></g><g transform="translate(507.8349048875964 306.2135946211488) rotate(0 -11.349479338053243 -8.252418825978566)"><path d="M-14.69 -17.77 C-17.14 -17.38, -19.59 -17, -22.7 -16.5 M-14.69 -17.77 C-17.3 -17.36, -19.91 -16.95, -22.7 -16.5" stroke="#343a40" stroke-width="1" fill="none"></path></g><g transform="translate(507.8349048875964 306.2135946211488) rotate(0 -11.349479338053243 -8.252418825978566)"><path d="M-15.75 -12.33 C-17.87 -13.61, -20 -14.88, -22.7 -16.5 M-15.75 -12.33 C-18.02 -13.69, -20.28 -15.05, -22.7 -16.5" stroke="#343a40" stroke-width="1" fill="none"></path></g></g><g stroke-linecap="round"><g transform="translate(309.2205966842107 320.633134981892) rotate(0 89.92827040721932 0)"><path d="M0 0 C29.98 0, 149.88 0, 179.86 0 M0 0 C29.98 0, 149.88 0, 179.86 0" stroke="#343a40" stroke-width="1" fill="none"></path></g><g transform="translate(309.2205966842107 320.633134981892) rotate(0 89.92827040721932 0)"><path d="M151.67 10.26 C162.43 6.34, 173.2 2.42, 179.86 0 M151.67 10.26 C160.46 7.06, 169.25 3.86, 179.86 0" stroke="#343a40" stroke-width="1" fill="none"></path></g><g transform="translate(309.2205966842107 320.633134981892) rotate(0 89.92827040721932 0)"><path d="M151.67 -10.26 C162.43 -6.34, 173.2 -2.42, 179.86 0 M151.67 -10.26 C160.46 -7.06, 169.25 -3.86, 179.86 0" stroke="#343a40" stroke-width="1" fill="none"></path></g></g><g transform="translate(385.1077126736816 321.41075284537874) rotate(0 12.5 12.5)"><text x="0" y="18" font-family="Virgil, Segoe UI Emoji" font-size="20px" fill="#343a40" text-anchor="start" style="white-space: pre;" direction="ltr">aε</text></g><g stroke-linecap="round"><g transform="translate(308.8979849528729 308.2567622288648) rotate(0 0 13.513934276073542)"><path d="M0 0 C0 4.5, 0 22.52, 0 27.03" stroke="#343a40" stroke-width="1.5" fill="none" stroke-dasharray="1.5 7"></path></g></g><g stroke-linecap="round"><g transform="translate(489.2314685712979 307.81368241653445) rotate(0 0 13.29239436990838)"><path d="M0 0 C0 4.43, 0 22.15, 0 26.58" stroke="#343a40" stroke-width="1.5" fill="none" stroke-dasharray="1.5 7"></path></g></g></svg>